<?xml version="1.0" encoding="UTF-8" standalone="no"?><svg xmlns:dc="http://purl.org/dc/elements/1.1/" xmlns:cc="http://creativecommons.org/ns#" xmlns:rdf="http://www.w3.org/1999/02/22-rdf-syntax-ns#" xmlns:svg="http://www.w3.org/2000/svg" xmlns="http://www.w3.org/2000/svg" id="svg6" viewBox="0 0 512.000000 512.000000" height="682.667" width="682.667" version="1"><defs id="defs10" /><path id="path2" d="M41.5 1C21.3 5.2 4.8 21.7 1 41.5c-.8 4.4-1 63.3-.8 218l.3 212 2.2 5.9c2.9 7.5 5.7 12 11.3 18 5.8 6.3 11.4 10 19.7 13.4l6.8 2.7 211 .3c151.5.2 212.9-.1 217.7-.8 17.9-3 32.7-15.4 39.9-33.5l2.4-6 .3-211c.2-151.4-.1-212.9-.9-217.7C508 25 495 9.5 477.4 2.8L471.5.5l-213-.1C141.3.3 43.7.6 41.5 1zm50.6 168.9c9.8 3.4 15.7 8.3 19.9 16.5l3.5 6.9v63.6c0 63.5 0 63.6-2.2 69.1-2.6 6.3-7.9 12.2-13.6 15.1-7.9 4.1-15.5 4.9-47.4 4.9H22V166.9l31.8.3c30 .4 32 .5 38.3 2.7zm112.9 6.6v9.5h-18v141h18v19h-58v-19h18V186h-18v-19h58v9.5zm80.6 35.4c6.2 24.4 11.5 44.5 11.7 44.7.2.3 5.5-19.8 11.7-44.6l11.2-45H356v179h-22l-.1-78.8v-78.7L320.6 237l-13.3 48.5h-21.6L272.4 237l-13.3-48.5v78.7L259 346h-21V167l18.2.2 18.2.3 11.2 44.4zM423.1 243c7.4 41.5 13.7 76.4 14 77.4.2 1.1 7.2-32.9 15.5-75.5l15-77.4 11.2-.3 11.2-.3-.6 2.8c-.3 1.5-8.8 41.7-18.8 89.3l-18.1 86.5h-30.9l-17.3-88c-9.5-48.4-17.3-88.6-17.3-89.3 0-1 2.6-1.2 11.2-1l11.3.3 13.6 75.5z" /><path id="path4" d="M45 256.6v70.6l18.8-.4c21-.3 23.7-1.1 27.7-7.8 1.9-3.4 2-5.2 2.3-60.5.3-62.9.3-62.7-5.9-67.9-4.5-3.8-9-4.6-26.6-4.6H45v70.6z" /><path transform="scale(0.74999964)" id="path3717" d="M 29.582915,341.83412 V 223.12277 l 24.800684,0.0464 c 13.640376,0.0255 33.314733,0.43359 43.720793,0.90686 16.594958,0.75476 19.769778,1.18381 25.833978,3.49128 12.83208,4.88268 19.72755,11.08491 25.858,23.25838 l 3.60093,7.15049 -0.289,85.61121 -0.289,85.6112 -3.25799,6.87748 c -3.54971,7.49328 -10.477,15.01188 -16.80618,18.2408 -9.98958,5.0963 -13.01933,5.39307 -59.451422,5.82343 l -43.720793,0.40521 z m 61.002672,94.10304 c 22.380423,-0.94901 26.530403,-2.15933 30.965353,-9.03079 2.36031,-3.65704 2.52496,-4.98848 3.38432,-27.36637 1.25094,-32.57468 0.43605,-131.82033 -1.12216,-136.66892 -1.79286,-5.57871 -4.67762,-8.63322 -11.15959,-11.81626 -5.82977,-2.86276 -5.96297,-2.87727 -29.63407,-3.22705 L 59.241465,247.4764 v 94.69624 94.69623 l 5.880574,-0.0506 c 3.234316,-0.0279 14.692913,-0.42433 25.463548,-0.88105 z" style="fill:#ffffff;stroke-width:1.02270865" /><path transform="scale(0.74999964)" id="path3719" d="m 196.28442,448.66248 v -11.7287 l 12.01682,-0.28813 12.01683,-0.28814 0.261,-94.34486 0.261,-94.34487 h -12.27782 -12.27783 v -12.27251 -12.2725 h 38.35157 38.35157 v 12.2725 12.27251 h -12.27783 -12.27782 l 0.261,94.34487 0.261,94.34486 12.01683,0.28814 12.01682,0.28813 v 11.7287 11.72869 h -38.35157 -38.35157 z" style="fill:#ffffff;stroke-width:1.02270865" /><path transform="scale(0.74999964)" id="path3721" d="m 317.98674,341.75697 v -118.6342 l 15.59631,0.006 c 8.57797,0.003 19.28019,0.29298 23.78272,0.64358 l 8.18641,0.63746 8.99469,35.40689 c 15.48549,60.95743 21.464,83.07607 22.22849,82.23857 0.69145,-0.75749 13.35703,-49.4879 24.00078,-92.34221 2.58456,-10.40606 5.15371,-20.64593 5.70922,-22.75526 l 1.01004,-3.83516 h 23.48287 23.48289 v 118.6342 118.6342 H 460.14324 445.82532 V 355.90443 c 0,-57.46769 -0.34517,-104.14363 -0.76704,-103.72429 -0.42186,0.41933 -8.62026,29.37477 -18.21867,64.34541 l -17.45164,63.58299 -13.91142,0.28399 -13.91142,0.28397 -1.4179,-4.88616 c -0.77984,-2.6874 -8.75697,-31.69345 -17.72695,-64.45791 -8.96998,-32.76445 -16.65422,-59.5722 -17.07608,-59.57277 -0.42187,-5.8e-4 -0.76704,46.94128 -0.76704,104.31523 v 104.31628 h -13.29521 -13.29521 z" style="fill:#ffffff;stroke-width:1.02270865" /><path transform="scale(0.74999964)" id="path3723" d="m 561.48004,455.02195 c -3.41983,-17.01637 -27.8142,-141.81298 -34.83466,-178.20698 -4.55722,-23.62457 -8.69577,-45.01781 -9.19677,-47.54054 -0.65,-3.27292 -0.56557,-4.82911 0.29472,-5.43274 1.12435,-0.78891 26.99307,-0.37598 27.72493,0.44255 0.18323,0.20493 6.85876,36.72988 14.83452,81.16657 20.59494,114.74406 21.98069,122.20876 22.68735,122.21136 0.34827,10e-4 0.90316,-1.49339 1.23308,-3.32148 0.32993,-1.82809 3.63013,-18.05081 7.33378,-36.05048 3.70365,-17.99967 12.44218,-62.11631 19.41895,-98.03698 6.97677,-35.92066 12.94398,-65.56925 13.26048,-65.88575 0.87572,-0.87572 28.17603,-1.61944 28.17603,-0.76758 0,0.40918 -7.79801,37.862 -17.3289,83.22849 -9.5309,45.36649 -20.66257,98.47713 -24.73704,118.02365 l -7.40813,35.53913 h -20.18964 -20.18963 z" style="fill:#ffffff;stroke-width:1.02270865" /></svg>
