<svg version="1" xmlns="http://www.w3.org/2000/svg" width="682.667" height="682.667" viewBox="0 0 512.000000 512.000000"><path d="M41.5 1C21.3 5.2 4.8 21.7 1 41.5c-.8 4.4-1 63.3-.8 218l.3 212 2.2 5.9c2.9 7.5 5.7 12 11.3 18 5.8 6.3 11.4 10 19.7 13.4l6.8 2.7 211 .3c151.5.2 212.9-.1 217.7-.8 17.9-3 32.7-15.4 39.9-33.5l2.4-6 .3-211c.2-151.4-.1-212.9-.9-217.7C508 25 495 9.5 477.4 2.8L471.5.5l-213-.1C141.3.3 43.7.6 41.5 1zm50.6 168.9c9.8 3.4 15.7 8.3 19.9 16.5l3.5 6.9v63.6c0 63.5 0 63.6-2.2 69.1-2.6 6.3-7.9 12.2-13.6 15.1-7.9 4.1-15.5 4.9-47.4 4.9H22V166.9l31.8.3c30 .4 32 .5 38.3 2.7zm112.9 6.6v9.5h-18v141h18v19h-58v-19h18V186h-18v-19h58v9.5zm80.6 35.4c6.2 24.4 11.5 44.5 11.7 44.7.2.3 5.5-19.8 11.7-44.6l11.2-45H356v179h-22l-.1-78.8v-78.7L320.6 237l-13.3 48.5h-21.6L272.4 237l-13.3-48.5v78.7L259 346h-21V167l18.2.2 18.2.3 11.2 44.4zM423.1 243c7.4 41.5 13.7 76.4 14 77.4.2 1.1 7.2-32.9 15.5-75.5l15-77.4 11.2-.3 11.2-.3-.6 2.8c-.3 1.5-8.8 41.7-18.8 89.3l-18.1 86.5h-30.9l-17.3-88c-9.5-48.4-17.3-88.6-17.3-89.3 0-1 2.6-1.2 11.2-1l11.3.3 13.6 75.5z"/><path d="M45 256.6v70.6l18.8-.4c21-.3 23.7-1.1 27.7-7.8 1.9-3.4 2-5.2 2.3-60.5.3-62.9.3-62.7-5.9-67.9-4.5-3.8-9-4.6-26.6-4.6H45v70.6z"/></svg>